<svg xmlns="http://www.w3.org/2000/svg" version="1.1" xmlns:xlink="http://www.w3.org/1999/xlink" xmlns:svgjs="http://svgjs.dev/svgjs" viewBox="0 0 800 800" width="800" height="800"><g stroke-width="2" stroke="hsla(0, 0%, 100%, 1.00)" fill="none"><rect width="66.66666666666667" height="57.142857142857146" x="0" y="0"></rect><rect width="66.66666666666667" height="57.142857142857146" x="66.66666666666667" y="0"></rect><rect width="66.66666666666667" height="57.142857142857146" x="133.33333333333334" y="0"></rect><rect width="66.66666666666667" height="57.142857142857146" x="200" y="0"></rect><rect width="66.66666666666667" height="57.142857142857146" x="266.6666666666667" y="0"></rect><rect width="66.66666666666667" height="57.142857142857146" x="333.33333333333337" y="0"></rect><rect width="66.66666666666667" height="57.142857142857146" x="400.00000000000006" y="0"></rect><rect width="66.66666666666667" height="57.142857142857146" x="466.66666666666674" y="0"></rect><rect width="66.66666666666667" height="57.142857142857146" x="533.3333333333334" y="0"></rect><rect width="66.66666666666667" height="57.142857142857146" x="600" y="0"></rect><rect width="66.66666666666667" height="57.142857142857146" x="666.6666666666666" y="0"></rect><rect width="66.66666666666667" height="57.142857142857146" x="733.3333333333333" y="0"></rect><rect width="66.66666666666667" height="57.142857142857146" x="799.9999999999999" y="0"></rect><rect width="66.66666666666667" height="57.142857142857146" x="0" y="57.142857142857146"></rect><rect width="66.66666666666667" height="57.142857142857146" x="66.66666666666667" y="57.142857142857146"></rect><rect width="66.66666666666667" height="57.142857142857146" x="133.33333333333334" y="57.142857142857146"></rect><rect width="66.66666666666667" height="57.142857142857146" x="200" y="57.142857142857146"></rect><rect width="66.66666666666667" height="57.142857142857146" x="266.6666666666667" y="57.142857142857146"></rect><rect width="66.66666666666667" height="57.142857142857146" x="333.33333333333337" y="57.142857142857146"></rect><rect width="66.66666666666667" height="57.142857142857146" x="400.00000000000006" y="57.142857142857146"></rect><rect width="66.66666666666667" height="57.142857142857146" x="466.66666666666674" y="57.142857142857146"></rect><rect width="66.66666666666667" height="57.142857142857146" x="533.3333333333334" y="57.142857142857146"></rect><rect width="66.66666666666667" height="57.142857142857146" x="600" y="57.142857142857146"></rect><rect width="66.66666666666667" height="57.142857142857146" x="666.6666666666666" y="57.142857142857146"></rect><rect width="66.66666666666667" height="57.142857142857146" x="733.3333333333333" y="57.142857142857146"></rect><rect width="66.66666666666667" height="57.142857142857146" x="799.9999999999999" y="57.142857142857146"></rect><rect width="66.66666666666667" height="57.142857142857146" x="0" y="114.28571428571429"></rect><rect width="66.66666666666667" height="57.142857142857146" x="66.66666666666667" y="114.28571428571429"></rect><rect width="66.66666666666667" height="57.142857142857146" x="133.33333333333334" y="114.28571428571429"></rect><rect width="66.66666666666667" height="57.142857142857146" x="200" y="114.28571428571429"></rect><rect width="66.66666666666667" height="57.142857142857146" x="266.6666666666667" y="114.28571428571429"></rect><rect width="66.66666666666667" height="57.142857142857146" x="333.33333333333337" y="114.28571428571429"></rect><rect width="66.66666666666667" height="57.142857142857146" x="400.00000000000006" y="114.28571428571429"></rect><rect width="66.66666666666667" height="57.142857142857146" x="466.66666666666674" y="114.28571428571429"></rect><rect width="66.66666666666667" height="57.142857142857146" x="533.3333333333334" y="114.28571428571429"></rect><rect width="66.66666666666667" height="57.142857142857146" x="600" y="114.28571428571429"></rect><rect width="66.66666666666667" height="57.142857142857146" x="666.6666666666666" y="114.28571428571429"></rect><rect width="66.66666666666667" height="57.142857142857146" x="733.3333333333333" y="114.28571428571429"></rect><rect width="66.66666666666667" height="57.142857142857146" x="799.9999999999999" y="114.28571428571429"></rect><rect width="66.66666666666667" height="57.142857142857146" x="0" y="171.42857142857144"></rect><rect width="66.66666666666667" height="57.142857142857146" x="66.66666666666667" y="171.42857142857144"></rect><rect width="66.66666666666667" height="57.142857142857146" x="133.33333333333334" y="171.42857142857144"></rect><rect width="66.66666666666667" height="57.142857142857146" x="200" y="171.42857142857144"></rect><rect width="66.66666666666667" height="57.142857142857146" x="266.6666666666667" y="171.42857142857144"></rect><rect width="66.66666666666667" height="57.142857142857146" x="333.33333333333337" y="171.42857142857144"></rect><rect width="66.66666666666667" height="57.142857142857146" x="400.00000000000006" y="171.42857142857144"></rect><rect width="66.66666666666667" height="57.142857142857146" x="466.66666666666674" y="171.42857142857144"></rect><rect width="66.66666666666667" height="57.142857142857146" x="533.3333333333334" y="171.42857142857144"></rect><rect width="66.66666666666667" height="57.142857142857146" x="600" y="171.42857142857144"></rect><rect width="66.66666666666667" height="57.142857142857146" x="666.6666666666666" y="171.42857142857144"></rect><rect width="66.66666666666667" height="57.142857142857146" x="733.3333333333333" y="171.42857142857144"></rect><rect width="66.66666666666667" height="57.142857142857146" x="799.9999999999999" y="171.42857142857144"></rect><rect width="66.66666666666667" height="57.142857142857146" x="0" y="228.57142857142858"></rect><rect width="66.66666666666667" height="57.142857142857146" x="66.66666666666667" y="228.57142857142858"></rect><rect width="66.66666666666667" height="57.142857142857146" x="133.33333333333334" y="228.57142857142858"></rect><rect width="66.66666666666667" height="57.142857142857146" x="200" y="228.57142857142858"></rect><rect width="66.66666666666667" height="57.142857142857146" x="266.6666666666667" y="228.57142857142858"></rect><rect width="66.66666666666667" height="57.142857142857146" x="333.33333333333337" y="228.57142857142858"></rect><rect width="66.66666666666667" height="57.142857142857146" x="400.00000000000006" y="228.57142857142858"></rect><rect width="66.66666666666667" height="57.142857142857146" x="466.66666666666674" y="228.57142857142858"></rect><rect width="66.66666666666667" height="57.142857142857146" x="533.3333333333334" y="228.57142857142858"></rect><rect width="66.66666666666667" height="57.142857142857146" x="600" y="228.57142857142858"></rect><rect width="66.66666666666667" height="57.142857142857146" x="666.6666666666666" y="228.57142857142858"></rect><rect width="66.66666666666667" height="57.142857142857146" x="733.3333333333333" y="228.57142857142858"></rect><rect width="66.66666666666667" height="57.142857142857146" x="799.9999999999999" y="228.57142857142858"></rect><rect width="66.66666666666667" height="57.142857142857146" x="0" y="285.7142857142857"></rect><rect width="66.66666666666667" height="57.142857142857146" x="66.66666666666667" y="285.7142857142857"></rect><rect width="66.66666666666667" height="57.142857142857146" x="133.33333333333334" y="285.7142857142857"></rect><rect width="66.66666666666667" height="57.142857142857146" x="200" y="285.7142857142857"></rect><rect width="66.66666666666667" height="57.142857142857146" x="266.6666666666667" y="285.7142857142857"></rect><rect width="66.66666666666667" height="57.142857142857146" x="333.33333333333337" y="285.7142857142857"></rect><rect width="66.66666666666667" height="57.142857142857146" x="400.00000000000006" y="285.7142857142857"></rect><rect width="66.66666666666667" height="57.142857142857146" x="466.66666666666674" y="285.7142857142857"></rect><rect width="66.66666666666667" height="57.142857142857146" x="533.3333333333334" y="285.7142857142857"></rect><rect width="66.66666666666667" height="57.142857142857146" x="600" y="285.7142857142857"></rect><rect width="66.66666666666667" height="57.142857142857146" x="666.6666666666666" y="285.7142857142857"></rect><rect width="66.66666666666667" height="57.142857142857146" x="733.3333333333333" y="285.7142857142857"></rect><rect width="66.66666666666667" height="57.142857142857146" x="799.9999999999999" y="285.7142857142857"></rect><rect width="66.66666666666667" height="57.142857142857146" x="0" y="342.8571428571429"></rect><rect width="66.66666666666667" height="57.142857142857146" x="66.66666666666667" y="342.8571428571429"></rect><rect width="66.66666666666667" height="57.142857142857146" x="133.33333333333334" y="342.8571428571429"></rect><rect width="66.66666666666667" height="57.142857142857146" x="200" y="342.8571428571429"></rect><rect width="66.66666666666667" height="57.142857142857146" x="266.6666666666667" y="342.8571428571429"></rect><rect width="66.66666666666667" height="57.142857142857146" x="333.33333333333337" y="342.8571428571429"></rect><rect width="66.66666666666667" height="57.142857142857146" x="400.00000000000006" y="342.8571428571429"></rect><rect width="66.66666666666667" height="57.142857142857146" x="466.66666666666674" y="342.8571428571429"></rect><rect width="66.66666666666667" height="57.142857142857146" x="533.3333333333334" y="342.8571428571429"></rect><rect width="66.66666666666667" height="57.142857142857146" x="600" y="342.8571428571429"></rect><rect width="66.66666666666667" height="57.142857142857146" x="666.6666666666666" y="342.8571428571429"></rect><rect width="66.66666666666667" height="57.142857142857146" x="733.3333333333333" y="342.8571428571429"></rect><rect width="66.66666666666667" height="57.142857142857146" x="799.9999999999999" y="342.8571428571429"></rect><rect width="66.66666666666667" height="57.142857142857146" x="0" y="400.00000000000006"></rect><rect width="66.66666666666667" height="57.142857142857146" x="66.66666666666667" y="400.00000000000006"></rect><rect width="66.66666666666667" height="57.142857142857146" x="133.33333333333334" y="400.00000000000006"></rect><rect width="66.66666666666667" height="57.142857142857146" x="200" y="400.00000000000006"></rect><rect width="66.66666666666667" height="57.142857142857146" x="266.6666666666667" y="400.00000000000006"></rect><rect width="66.66666666666667" height="57.142857142857146" x="333.33333333333337" y="400.00000000000006"></rect><rect width="66.66666666666667" height="57.142857142857146" x="400.00000000000006" y="400.00000000000006"></rect><rect width="66.66666666666667" height="57.142857142857146" x="466.66666666666674" y="400.00000000000006"></rect><rect width="66.66666666666667" height="57.142857142857146" x="533.3333333333334" y="400.00000000000006"></rect><rect width="66.66666666666667" height="57.142857142857146" x="600" y="400.00000000000006"></rect><rect width="66.66666666666667" height="57.142857142857146" x="666.6666666666666" y="400.00000000000006"></rect><rect width="66.66666666666667" height="57.142857142857146" x="733.3333333333333" y="400.00000000000006"></rect><rect width="66.66666666666667" height="57.142857142857146" x="799.9999999999999" y="400.00000000000006"></rect><rect width="66.66666666666667" height="57.142857142857146" x="0" y="457.1428571428572"></rect><rect width="66.66666666666667" height="57.142857142857146" x="66.66666666666667" y="457.1428571428572"></rect><rect width="66.66666666666667" height="57.142857142857146" x="133.33333333333334" y="457.1428571428572"></rect><rect width="66.66666666666667" height="57.142857142857146" x="200" y="457.1428571428572"></rect><rect width="66.66666666666667" height="57.142857142857146" x="266.6666666666667" y="457.1428571428572"></rect><rect width="66.66666666666667" height="57.142857142857146" x="333.33333333333337" y="457.1428571428572"></rect><rect width="66.66666666666667" height="57.142857142857146" x="400.00000000000006" y="457.1428571428572"></rect><rect width="66.66666666666667" height="57.142857142857146" x="466.66666666666674" y="457.1428571428572"></rect><rect width="66.66666666666667" height="57.142857142857146" x="533.3333333333334" y="457.1428571428572"></rect><rect width="66.66666666666667" height="57.142857142857146" x="600" y="457.1428571428572"></rect><rect width="66.66666666666667" height="57.142857142857146" x="666.6666666666666" y="457.1428571428572"></rect><rect width="66.66666666666667" height="57.142857142857146" x="733.3333333333333" y="457.1428571428572"></rect><rect width="66.66666666666667" height="57.142857142857146" x="799.9999999999999" y="457.1428571428572"></rect><rect width="66.66666666666667" height="57.142857142857146" x="0" y="514.2857142857143"></rect><rect width="66.66666666666667" height="57.142857142857146" x="66.66666666666667" y="514.2857142857143"></rect><rect width="66.66666666666667" height="57.142857142857146" x="133.33333333333334" y="514.2857142857143"></rect><rect width="66.66666666666667" height="57.142857142857146" x="200" y="514.2857142857143"></rect><rect width="66.66666666666667" height="57.142857142857146" x="266.6666666666667" y="514.2857142857143"></rect><rect width="66.66666666666667" height="57.142857142857146" x="333.33333333333337" y="514.2857142857143"></rect><rect width="66.66666666666667" height="57.142857142857146" x="400.00000000000006" y="514.2857142857143"></rect><rect width="66.66666666666667" height="57.142857142857146" x="466.66666666666674" y="514.2857142857143"></rect><rect width="66.66666666666667" height="57.142857142857146" x="533.3333333333334" y="514.2857142857143"></rect><rect width="66.66666666666667" height="57.142857142857146" x="600" y="514.2857142857143"></rect><rect width="66.66666666666667" height="57.142857142857146" x="666.6666666666666" y="514.2857142857143"></rect><rect width="66.66666666666667" height="57.142857142857146" x="733.3333333333333" y="514.2857142857143"></rect><rect width="66.66666666666667" height="57.142857142857146" x="799.9999999999999" y="514.2857142857143"></rect><rect width="66.66666666666667" height="57.142857142857146" x="0" y="571.4285714285714"></rect><rect width="66.66666666666667" height="57.142857142857146" x="66.66666666666667" y="571.4285714285714"></rect><rect width="66.66666666666667" height="57.142857142857146" x="133.33333333333334" y="571.4285714285714"></rect><rect width="66.66666666666667" height="57.142857142857146" x="200" y="571.4285714285714"></rect><rect width="66.66666666666667" height="57.142857142857146" x="266.6666666666667" y="571.4285714285714"></rect><rect width="66.66666666666667" height="57.142857142857146" x="333.33333333333337" y="571.4285714285714"></rect><rect width="66.66666666666667" height="57.142857142857146" x="400.00000000000006" y="571.4285714285714"></rect><rect width="66.66666666666667" height="57.142857142857146" x="466.66666666666674" y="571.4285714285714"></rect><rect width="66.66666666666667" height="57.142857142857146" x="533.3333333333334" y="571.4285714285714"></rect><rect width="66.66666666666667" height="57.142857142857146" x="600" y="571.4285714285714"></rect><rect width="66.66666666666667" height="57.142857142857146" x="666.6666666666666" y="571.4285714285714"></rect><rect width="66.66666666666667" height="57.142857142857146" x="733.3333333333333" y="571.4285714285714"></rect><rect width="66.66666666666667" height="57.142857142857146" x="799.9999999999999" y="571.4285714285714"></rect><rect width="66.66666666666667" height="57.142857142857146" x="0" y="628.5714285714286"></rect><rect width="66.66666666666667" height="57.142857142857146" x="66.66666666666667" y="628.5714285714286"></rect><rect width="66.66666666666667" height="57.142857142857146" x="133.33333333333334" y="628.5714285714286"></rect><rect width="66.66666666666667" height="57.142857142857146" x="200" y="628.5714285714286"></rect><rect width="66.66666666666667" height="57.142857142857146" x="266.6666666666667" y="628.5714285714286"></rect><rect width="66.66666666666667" height="57.142857142857146" x="333.33333333333337" y="628.5714285714286"></rect><rect width="66.66666666666667" height="57.142857142857146" x="400.00000000000006" y="628.5714285714286"></rect><rect width="66.66666666666667" height="57.142857142857146" x="466.66666666666674" y="628.5714285714286"></rect><rect width="66.66666666666667" height="57.142857142857146" x="533.3333333333334" y="628.5714285714286"></rect><rect width="66.66666666666667" height="57.142857142857146" x="600" y="628.5714285714286"></rect><rect width="66.66666666666667" height="57.142857142857146" x="666.6666666666666" y="628.5714285714286"></rect><rect width="66.66666666666667" height="57.142857142857146" x="733.3333333333333" y="628.5714285714286"></rect><rect width="66.66666666666667" height="57.142857142857146" x="799.9999999999999" y="628.5714285714286"></rect><rect width="66.66666666666667" height="57.142857142857146" x="0" y="685.7142857142857"></rect><rect width="66.66666666666667" height="57.142857142857146" x="66.66666666666667" y="685.7142857142857"></rect><rect width="66.66666666666667" height="57.142857142857146" x="133.33333333333334" y="685.7142857142857"></rect><rect width="66.66666666666667" height="57.142857142857146" x="200" y="685.7142857142857"></rect><rect width="66.66666666666667" height="57.142857142857146" x="266.6666666666667" y="685.7142857142857"></rect><rect width="66.66666666666667" height="57.142857142857146" x="333.33333333333337" y="685.7142857142857"></rect><rect width="66.66666666666667" height="57.142857142857146" x="400.00000000000006" y="685.7142857142857"></rect><rect width="66.66666666666667" height="57.142857142857146" x="466.66666666666674" y="685.7142857142857"></rect><rect width="66.66666666666667" height="57.142857142857146" x="533.3333333333334" y="685.7142857142857"></rect><rect width="66.66666666666667" height="57.142857142857146" x="600" y="685.7142857142857"></rect><rect width="66.66666666666667" height="57.142857142857146" x="666.6666666666666" y="685.7142857142857"></rect><rect width="66.66666666666667" height="57.142857142857146" x="733.3333333333333" y="685.7142857142857"></rect><rect width="66.66666666666667" height="57.142857142857146" x="799.9999999999999" y="685.7142857142857"></rect><rect width="66.66666666666667" height="57.142857142857146" x="0" y="742.8571428571428"></rect><rect width="66.66666666666667" height="57.142857142857146" x="66.66666666666667" y="742.8571428571428"></rect><rect width="66.66666666666667" height="57.142857142857146" x="133.33333333333334" y="742.8571428571428"></rect><rect width="66.66666666666667" height="57.142857142857146" x="200" y="742.8571428571428"></rect><rect width="66.66666666666667" height="57.142857142857146" x="266.6666666666667" y="742.8571428571428"></rect><rect width="66.66666666666667" height="57.142857142857146" x="333.33333333333337" y="742.8571428571428"></rect><rect width="66.66666666666667" height="57.142857142857146" x="400.00000000000006" y="742.8571428571428"></rect><rect width="66.66666666666667" height="57.142857142857146" x="466.66666666666674" y="742.8571428571428"></rect><rect width="66.66666666666667" height="57.142857142857146" x="533.3333333333334" y="742.8571428571428"></rect><rect width="66.66666666666667" height="57.142857142857146" x="600" y="742.8571428571428"></rect><rect width="66.66666666666667" height="57.142857142857146" x="666.6666666666666" y="742.8571428571428"></rect><rect width="66.66666666666667" height="57.142857142857146" x="733.3333333333333" y="742.8571428571428"></rect><rect width="66.66666666666667" height="57.142857142857146" x="799.9999999999999" y="742.8571428571428"></rect><rect width="66.66666666666667" height="57.142857142857146" x="0" y="799.9999999999999"></rect><rect width="66.66666666666667" height="57.142857142857146" x="66.66666666666667" y="799.9999999999999"></rect><rect width="66.66666666666667" height="57.142857142857146" x="133.33333333333334" y="799.9999999999999"></rect><rect width="66.66666666666667" height="57.142857142857146" x="200" y="799.9999999999999"></rect><rect width="66.66666666666667" height="57.142857142857146" x="266.6666666666667" y="799.9999999999999"></rect><rect width="66.66666666666667" height="57.142857142857146" x="333.33333333333337" y="799.9999999999999"></rect><rect width="66.66666666666667" height="57.142857142857146" x="400.00000000000006" y="799.9999999999999"></rect><rect width="66.66666666666667" height="57.142857142857146" x="466.66666666666674" y="799.9999999999999"></rect><rect width="66.66666666666667" height="57.142857142857146" x="533.3333333333334" y="799.9999999999999"></rect><rect width="66.66666666666667" height="57.142857142857146" x="600" y="799.9999999999999"></rect><rect width="66.66666666666667" height="57.142857142857146" x="666.6666666666666" y="799.9999999999999"></rect><rect width="66.66666666666667" height="57.142857142857146" x="733.3333333333333" y="799.9999999999999"></rect><rect width="66.66666666666667" height="57.142857142857146" x="799.9999999999999" y="799.9999999999999"></rect></g></svg> 