<svg id="_레이어_1" data-name="레이어_1" xmlns="http://www.w3.org/2000/svg" xmlns:xlink="http://www.w3.org/1999/xlink" version="1.1" viewBox="0 0 200 200">
<g>
    <g>
      <path class="st20" d="M178.09,203.67h.77l1.73,6.58h.06l1.73-6.58h.87l1.74,6.58h.05l1.73-6.58h.77l-2.12,7.75h-.81l-1.77-6.48h-.06l-1.77,6.48h-.81l-2.12-7.75Z"/>
      <path class="st21" d="M192.2,211.16c-.4-.25-.71-.6-.93-1.05-.22-.45-.33-.97-.33-1.56s.11-1.1.33-1.56c.22-.46.52-.82.91-1.07.39-.26.83-.39,1.33-.39.44,0,.85.1,1.23.31.37.21.67.53.9.96.23.43.34.96.34,1.59v.34h-4.54v-.63h3.8c0-.36-.07-.69-.22-.98-.15-.29-.35-.52-.62-.69s-.56-.25-.9-.25c-.36,0-.67.09-.95.28-.28.19-.49.44-.65.76-.15.32-.23.66-.23,1.04v.39c0,.45.08.85.24,1.19.16.34.38.6.67.78.29.18.63.27,1.02.27.25,0,.48-.04.68-.12.2-.08.36-.17.5-.29.13-.11.24-.24.31-.38h.78c-.09.27-.24.51-.44.73-.21.22-.47.39-.78.51s-.66.19-1.04.19c-.53,0-1.01-.13-1.41-.38Z"/>
      <path class="st22" d="M206.16,203.67h5.67v.68h-2.45v7.07h-.77v-7.07h-2.45v-.68Z"/>
      <path class="st18" d="M215.75,205.61h.71v.9h.05c.12-.3.32-.54.6-.72.29-.18.61-.27.96-.27.14,0,.27,0,.38.02v.73s-.09-.02-.18-.03c-.09-.01-.17-.02-.26-.02-.29,0-.55.06-.79.19-.23.13-.42.3-.56.52s-.2.47-.2.75v3.73h-.73v-5.81Z"/>
      <path class="st17" d="M225.26,208.65l-.61.04c-.51.04-.89.15-1.14.34-.25.19-.38.45-.38.79,0,.22.06.41.17.57.11.16.27.28.47.37.2.08.42.13.67.13.34,0,.64-.08.9-.23.26-.15.46-.36.6-.61.14-.26.21-.54.21-.85v-1.78c0-.26-.05-.48-.16-.67-.11-.19-.27-.33-.48-.43-.21-.1-.47-.15-.77-.15-.37,0-.68.08-.93.23-.25.16-.41.37-.48.63h-.76c.04-.3.16-.57.36-.8.2-.23.46-.4.78-.53.32-.12.68-.19,1.07-.19.35,0,.68.06.99.17s.57.32.79.61.32.69.32,1.18v3.93h-.72v-.9h-.04c-.09.18-.21.34-.37.5-.16.16-.36.28-.6.38-.24.1-.52.15-.82.15-.36,0-.68-.07-.97-.21s-.52-.34-.69-.61c-.17-.27-.26-.58-.26-.94,0-.57.19-.98.57-1.25.38-.27.91-.42,1.57-.47.16-.01.52-.04,1.07-.07l.62-.03v.6s-.37.03-.97.07Z"/>
      <path class="st19" d="M232.61,211.16c-.36-.25-.65-.6-.85-1.06-.2-.46-.31-.98-.31-1.57s.1-1.12.31-1.58c.2-.45.49-.81.85-1.05.37-.25.79-.37,1.26-.37.33,0,.61.06.85.17.23.12.42.25.55.41.13.16.25.35.37.57h.05v-3.01h.74v7.75h-.72v-1.05h-.07c-.12.22-.24.42-.37.57-.13.16-.31.3-.55.42-.23.12-.52.18-.85.18-.47,0-.89-.13-1.25-.38ZM234.89,210.58c.27-.2.47-.48.6-.84.14-.36.21-.76.21-1.23s-.07-.86-.2-1.21-.33-.62-.6-.82c-.26-.2-.58-.29-.95-.29s-.68.1-.95.3c-.26.2-.47.48-.61.83-.14.35-.21.75-.21,1.2s.07.85.21,1.21c.14.36.34.64.61.85.26.21.58.31.95.31s.68-.1.94-.3Z"/>
      <path class="st16" d="M242.37,211.16c-.4-.25-.71-.6-.93-1.05-.22-.45-.33-.97-.33-1.56s.11-1.1.33-1.56c.22-.46.52-.82.91-1.07.39-.26.83-.39,1.33-.39.44,0,.85.1,1.23.31.37.21.67.53.9.96.23.43.34.96.34,1.59v.34h-4.54v-.63h3.8c0-.36-.07-.69-.22-.98-.15-.29-.35-.52-.62-.69s-.56-.25-.9-.25c-.36,0-.67.09-.95.28-.28.19-.49.44-.65.76-.15.32-.23.66-.23,1.04v.39c0,.45.08.85.24,1.19.16.34.38.6.67.78.29.18.63.27,1.02.27.25,0,.48-.04.68-.12.2-.08.36-.17.5-.29.13-.11.24-.24.31-.38h.78c-.09.27-.24.51-.44.73-.21.22-.47.39-.78.51s-.66.19-1.04.19c-.53,0-1.01-.13-1.41-.38Z"/>
      <path class="st15" d="M250.94,213.55h-.62l.59-2.77h.81l-.79,2.77Z"/>
      <path class="st14" d="M262.06,203.67h.77l1.73,6.58h.06l1.73-6.58h.87l1.74,6.58h.05l1.73-6.58h.77l-2.12,7.75h-.81l-1.77-6.48h-.06l-1.77,6.48h-.81l-2.12-7.75Z"/>
      <path class="st5" d="M275.9,203.67h4.54v.68h-3.78v2.85h3.54v.67h-3.54v2.86h3.85v.68h-4.61v-7.75Z"/>
      <path class="st8" d="M285.34,203.67h4.54v.68h-3.78v2.85h3.54v.67h-3.54v2.86h3.85v.68h-4.61v-7.75Z"/>
      <path class="st7" d="M294.32,203.67h5.67v.68h-2.45v7.07h-.77v-7.07h-2.45v-.68Z"/>
      <path class="st10" d="M310.31,209.64c-.29.6-.69,1.07-1.19,1.4s-1.09.49-1.74.49-1.23-.16-1.74-.49c-.51-.33-.91-.79-1.19-1.4s-.43-1.3-.43-2.09.14-1.5.43-2.1c.29-.6.68-1.06,1.19-1.39.51-.33,1.09-.49,1.74-.49s1.23.16,1.74.49c.51.33.91.79,1.19,1.39.29.6.43,1.3.43,2.1s-.14,1.49-.43,2.09ZM309.66,205.8c-.23-.49-.54-.87-.93-1.13s-.85-.39-1.35-.39-.95.13-1.35.39-.71.63-.94,1.13c-.23.49-.34,1.07-.34,1.75s.11,1.25.34,1.75c.23.49.54.87.94,1.13.4.26.85.39,1.35.39s.96-.13,1.35-.39.71-.63.93-1.13c.23-.49.34-1.08.34-1.75s-.11-1.26-.34-1.75Z"/>
      <path class="st9" d="M321.49,209.64c-.29.6-.69,1.07-1.19,1.4s-1.09.49-1.74.49-1.23-.16-1.74-.49c-.51-.33-.91-.79-1.19-1.4s-.43-1.3-.43-2.09.14-1.5.43-2.1c.29-.6.68-1.06,1.19-1.39.51-.33,1.09-.49,1.74-.49s1.23.16,1.74.49c.51.33.91.79,1.19,1.39.29.6.43,1.3.43,2.1s-.14,1.49-.43,2.09ZM320.84,205.8c-.23-.49-.54-.87-.93-1.13s-.85-.39-1.35-.39-.95.13-1.35.39-.71.63-.94,1.13c-.23.49-.34,1.07-.34,1.75s.11,1.25.34,1.75c.23.49.54.87.94,1.13.4.26.85.39,1.35.39s.96-.13,1.35-.39.71-.63.93-1.13c.23-.49.34-1.08.34-1.75s-.11-1.26-.34-1.75Z"/>
    </g>
    <g>
      <path class="st2" d="M212.13,171.49c3.23,0,4.58-1.92,6.68-4.02h-37.46v23.65h37.46c-2.08-2.08-3.44-4.02-6.68-4.02h-21.88v-5.81h23.59v-3.99h-17.19c-3.14,0-4.43,1.67-6.4,3.65v-9.46h21.88Z"/>
      <path class="st1" d="M253,187.09h-21.88v-5.81h23.59v-3.99h-17.19c-3.14,0-4.43,1.67-6.4,3.65v-9.46h21.88c3.23,0,4.58-1.92,6.68-4.02h-37.46v23.65h37.46c-2.08-2.08-3.44-4.02-6.68-4.02Z"/>
      <path class="st4" d="M284.86,167.49h-17.63c-.16-.01-.31,0-.45,0h-.99c-3.23,0-4.57,1.84-6.68,3.94h16.85v19.72h8.91v-19.71h10.17c3.23,0,4.57-1.84,6.68-3.94h-16.85Z"/>
      <path class="st3" d="M331.93,167.46h-19.27c-6.48,0-11.8,5.3-11.8,11.8s5.3,11.8,11.8,11.8h19.27c6.48,0,11.8-5.3,11.8-11.8s-5.32-11.8-11.8-11.8ZM330.3,186.73c-.56.25-1.18.42-1.86.42h-12.31c-.65,0-1.27-.17-1.83-.42-2.65-1.07-4.54-4.03-4.54-7.47s1.89-6.39,4.54-7.47c.56-.25,1.18-.42,1.83-.42h12.31c.68,0,1.3.17,1.86.42,2.62,1.07,4.54,4.03,4.54,7.47s-1.92,6.39-4.54,7.47Z"/>
      <path class="st6" d="M378.22,167.46h-19.27c-6.51,0-11.8,5.3-11.8,11.8s5.3,11.8,11.8,11.8h19.27c6.48,0,11.8-5.3,11.8-11.8s-5.32-11.8-11.8-11.8ZM376.58,186.73c-.56.25-1.21.42-1.86.42h-12.31c-.65,0-1.3-.17-1.83-.42-2.65-1.07-4.54-4.03-4.54-7.47s1.89-6.39,4.54-7.47c.54-.25,1.18-.42,1.83-.42h12.31c.68,0,1.3.17,1.86.42,2.62,1.07,4.54,4.03,4.54,7.47s-1.92,6.39-4.54,7.47Z"/>
      <polygon class="st11" points="171.91 161.45 169.33 161.45 164.03 161.45 160.36 161.45 154.13 161.45 151.13 161.45 151.12 161.45 148.01 161.45 156.19 177.67 160.2 169.37 156.23 169.37 160.36 166.33 162.4 164.83 165.2 162.76 167.19 165.86 167.78 166.78 168.29 167.57 169.42 169.34 169.44 169.37 169.38 169.37 167.42 169.37 165.5 169.37 158.9 183.03 158.93 183.1 158.86 183.1 158.08 183.1 153.64 183.1 153.57 183.1 153.6 183.03 144.7 165.75 136.49 183.1 135.91 183.1 135.83 183.1 135.11 183.1 132.43 183.1 131.2 183.1 130.54 183.1 120.07 161.45 113.27 161.45 109.98 161.45 123.97 191.15 139.11 191.15 144.7 180.97 149.74 191.15 164.87 191.15 179.23 161.45 176.21 161.45 171.91 161.45"/>
      <polygon class="st12" points="141.66 161.45 125.37 161.45 133.51 178.31 141.66 161.45"/>
    </g>
  </g>
  </svg>